HIERARCHY
ROOT hip
{
  OFFSET 0 0 0
  CHANNELS 6 Xposition Yposition Zposition Zrotation Yrotation Xrotation
  JOINT abdomen
  {
    OFFSET 0 20.6881 -0.73152
    CHANNELS 3 Zrotation Xrotation Yrotation
    JOINT chest
    {
      OFFSET 0 11.7043 -0.48768
      CHANNELS 3 Zrotation Xrotation Yrotation
      JOINT neck
      {
        OFFSET 0 22.1894 -2.19456
        CHANNELS 3 Zrotation Xrotation Yrotation
        JOINT head
        {
          OFFSET -0.24384 7.07133 1.2192
          CHANNELS 3 Zrotation Xrotation Yrotation
          JOINT leftEye
          {
            OFFSET 4.14528 8.04674 8.04672
            CHANNELS 3 Zrotation Xrotation Yrotation
            End Site
            {
              OFFSET 1 0 0
            }
          }
          JOINT rightEye
          {
            OFFSET -3.6576 8.04674 8.04672
            CHANNELS 3 Zrotation Xrotation Yrotation
            End Site
            {
              OFFSET 1 0 0
            }
          }
        }
      }
      JOINT rCollar
      {
        OFFSET -2.68224 19.2634 -4.8768
        CHANNELS 3 Zrotation Xrotation Yrotation
        JOINT rShldr
        {
          OFFSET -8.77824 -1.95073 1.46304
          CHANNELS 3 Zrotation Xrotation Yrotation
          JOINT rForeArm
          {
            OFFSET -28.1742 -1.7115 0.48768
            CHANNELS 3 Zrotation Xrotation Yrotation
            JOINT rHand
            {
              OFFSET -22.5879 0.773209 7.07136
              CHANNELS 3 Zrotation Xrotation Yrotation
              JOINT rThumb1
              {
                OFFSET -1.2192 -0.487915 3.41376
                CHANNELS 3 Zrotation Xrotation Yrotation
                JOINT rThumb2
                {
                  OFFSET -3.37035 -0.52449 3.41376
                  CHANNELS 3 Zrotation Xrotation Yrotation
                  End Site
                  {
                    OFFSET -1.78271 -1.18214 1.43049
                  }
                }
              }
              JOINT rIndex1
              {
                OFFSET -7.75947 0.938293 5.60832
                CHANNELS 3 Zrotation Xrotation Yrotation
                JOINT rIndex2
                {
                  OFFSET -2.54057 -0.884171 1.56538
                  CHANNELS 3 Zrotation Xrotation Yrotation
                  End Site
                  {
                    OFFSET -1.62519 -0.234802 1.16502
                  }
                }
              }
              JOINT rMid1
              {
                OFFSET -8.24714 1.18213 3.41376
                CHANNELS 3 Zrotation Xrotation Yrotation
                JOINT rMid2
                {
                  OFFSET -3.10165 -0.590103 1.0647
                  CHANNELS 3 Zrotation Xrotation Yrotation
                  End Site
                  {
                    OFFSET -2.48547 -0.328903 0.83742
                  }
                }
              }
              JOINT rRing1
              {
                OFFSET -8.82822 0.546677 1.51678
                CHANNELS 3 Zrotation Xrotation Yrotation
                JOINT rRing2
                {
                  OFFSET -2.60934 -0.819778 -0.0198488
                  CHANNELS 3 Zrotation Xrotation Yrotation
                  End Site
                  {
                    OFFSET -2.33842 -0.294052 0.168128
                  }
                }
              }
              JOINT rPinky1
              {
                OFFSET -8.27202 -0.0477905 -0.4584
                CHANNELS 3 Zrotation Xrotation Yrotation
                JOINT rPinky2
                {
                  OFFSET -1.82734 -0.647385 -0.700984
                  CHANNELS 3 Zrotation Xrotation Yrotation
                  End Site
                  {
                    OFFSET -1.69225 -0.51767 -0.607171
                  }
                }
              }
            }
          }
        }
      }
      JOINT lCollar
      {
        OFFSET 2.68224 19.2634 -4.8768
        CHANNELS 3 Zrotation Xrotation Yrotation
        JOINT lShldr
        {
          OFFSET 8.77824 -1.95073 1.46304
          CHANNELS 3 Zrotation Xrotation Yrotation
          JOINT lForeArm
          {
            OFFSET 28.1742 -1.7115 0.48768
            CHANNELS 3 Zrotation Xrotation Yrotation
            JOINT lHand
            {
              OFFSET 22.5879 0.773209 7.07136
              CHANNELS 3 Zrotation Xrotation Yrotation
              JOINT lThumb1
              {
                OFFSET 1.2192 -0.487915 3.41376
                CHANNELS 3 Zrotation Xrotation Yrotation
                JOINT lThumb2
                {
                  OFFSET 3.37035 -0.52449 3.41376
                  CHANNELS 3 Zrotation Xrotation Yrotation
                  End Site
                  {
                    OFFSET 1.78271 -1.18214 1.43049
                  }
                }
              }
              JOINT lIndex1
              {
                OFFSET 7.75947 0.938293 5.60832
                CHANNELS 3 Zrotation Xrotation Yrotation
                JOINT lIndex2
                {
                  OFFSET 2.54057 -0.884171 1.56538
                  CHANNELS 3 Zrotation Xrotation Yrotation
                  End Site
                  {
                    OFFSET 1.62519 -0.234802 1.16502
                  }
                }
              }
              JOINT lMid1
              {
                OFFSET 8.24714 1.18213 3.41376
                CHANNELS 3 Zrotation Xrotation Yrotation
                JOINT lMid2
                {
                  OFFSET 3.10165 -0.590103 1.0647
                  CHANNELS 3 Zrotation Xrotation Yrotation
                  End Site
                  {
                    OFFSET 2.48547 -0.328903 0.83742
                  }
                }
              }
              JOINT lRing1
              {
                OFFSET 8.82822 0.546677 1.51678
                CHANNELS 3 Zrotation Xrotation Yrotation
                JOINT lRing2
                {
                  OFFSET 2.60934 -0.819778 -0.0198488
                  CHANNELS 3 Zrotation Xrotation Yrotation
                  End Site
                  {
                    OFFSET 2.33842 -0.294052 0.168128
                  }
                }
              }
              JOINT lPinky1
              {
                OFFSET 8.27202 -0.0477905 -0.4584
                CHANNELS 3 Zrotation Xrotation Yrotation
                JOINT lPinky2
                {
                  OFFSET 1.82734 -0.647385 -0.700984
                  CHANNELS 3 Zrotation Xrotation Yrotation
                  End Site
                  {
                    OFFSET 1.69225 -0.51767 -0.607171
                  }
                }
              }
            }
          }
        }
      }
    }
  }
  JOINT rButtock
  {
    OFFSET -8.77824 4.35084 1.2192
    CHANNELS 3 Zrotation Xrotation Yrotation
    JOINT rThigh
    {
      OFFSET 0 -1.70687 -2.19456
      CHANNELS 3 Zrotation Xrotation Yrotation
      JOINT rShin
      {
        OFFSET 0 -36.8199 0.73152
        CHANNELS 3 Zrotation Xrotation Yrotation
        JOINT rFoot
        {
          OFFSET 0.73152 -45.1104 -5.12064
          CHANNELS 3 Zrotation Xrotation Yrotation
          End Site
          {
            OFFSET -1.1221 -3.69964 12.103
          }
        }
      }
    }
  }
  JOINT lButtock
  {
    OFFSET 8.77824 4.35084 1.2192
    CHANNELS 3 Zrotation Xrotation Yrotation
    JOINT lThigh
    {
      OFFSET 0 -1.70687 -2.19456
      CHANNELS 3 Zrotation Xrotation Yrotation
      JOINT lShin
      {
        OFFSET 0 -36.8199 0.73152
        CHANNELS 3 Zrotation Xrotation Yrotation
        JOINT lFoot
        {
          OFFSET -0.73152 -45.1104 -5.12064
          CHANNELS 3 Zrotation Xrotation Yrotation
          End Site
          {
            OFFSET 1.1221 -3.69964 12.103
          }
        }
      }
    }
  }
}
MOTION
Frames:	4
Frame Time:	0.03333
0.023926717954089977 36.176957542807955 0.011459155613133837 -49.25299072265625 69.2384033203125 -42.218990325927734 12.168898582458496 6.149559497833252 -1.5259900093078613 6.528749465942383 -6.364260673522949 0.1148969978094101 -9.902200698852539 24.817899703979492 -20.04629898071289 15.922198295593262 -24.560598373413086 -36.38759994506836 -0.0 0.0 -0.0 -0.0 0.0 -0.0 7.251664546625847e-13 -4.261943228889287e-12 4.007498543082133e-13 63.875099182128906 -25.234399795532227 19.77389907836914 -27.271297454833984 -27.289899826049805 62.93479537963867 -1.840780258178711 -35.481502532958984 -5.749450206756592 -2.6186268708983107e-09 -3.3100158169929728e-09 -1.3091925321617737e-09 -4.463233782558973e-09 -5.251477031009699e-09 -2.339221483182996e-09 -2.6186268708983107e-09 -3.3100158169929728e-09 -1.3091925321617737e-09 7.7309088706970215 5.474880218505859 0.41731396317481995 -2.6186268708983107e-09 -3.3100158169929728e-09 -1.3091925321617737e-09 2.9055399894714355 0.9651829600334167 0.10290198773145676 -2.61861421435583e-09 -3.3100158169929728e-09 -1.3091925321617737e-09 10.27859878540039 0.73180091381073 0.025912299752235413 -2.6186268708983107e-09 -3.3100158169929728e-09 -1.309179875619293e-09 2.2216696739196777 -0.7334870100021362 -0.2089199721813202 7.251664546625847e-13 -4.261943228889287e-12 3.943887588470779e-13 -115.75199127197266 44.89120101928711 53.32569885253906 27.940196990966797 -40.71870040893555 -85.21939849853516 23.87139892578125 -74.7175064086914 30.953998565673828 -3.4824780836828495e-09 -8.130388029492508e-10 2.1704675834399723e-09 -6.111766204242031e-09 -1.0705746289474405e-09 3.512941493255539e-09 -3.482490962269935e-09 -8.130515150028828e-10 2.170486679275996e-09 -7.7309088706970215 5.474880218505859 -0.41731396317481995 -3.4824780836828495e-09 -8.130515150028828e-10 2.1704675834399723e-09 -2.9055399894714355 0.9651829600334167 -0.10290198773145676 -3.4824780836828495e-09 -8.130388029492508e-10 2.1704675834399723e-09 -10.27859878540039 0.73180091381073 -0.025912299752235413 -3.4824780836828495e-09 -8.130388029492508e-10 2.1704613661910344e-09 -2.2216696739196777 -0.7334870100021362 0.2089199721813202 -0.0 0.0 -0.0 -2.364269733428955 5.897999286651611 -10.664299011230469 -0.165525883436203 41.391197204589844 1.8732895851135254 -10.647899627685547 -26.998998641967773 -18.15070152282715 -0.0 0.0 -0.0 79.68419647216797 -57.22519302368164 62.13369369506836 6.064899921417236 81.09590911865234 -6.17087984085083 -4.362329483032227 -10.216800689697266 -15.07450008392334
0.049853058831560486 36.16589946654171 0.028074931460618735 -49.49597930908203 69.33369445800781 -42.43600082397461 12.018697738647461 6.0503692626953125 -1.395279884338379 6.494410037994385 -6.343389511108398 0.1411990076303482 -9.85755729675293 24.835399627685547 -20.088998794555664 15.967100143432617 -24.57499885559082 -36.45559310913086 -0.0 0.0 -0.0 -0.0 0.0 -0.0 4.834442850383536e-13 -3.2441655698628447e-12 2.0991659745086405e-13 63.90779495239258 -25.24089813232422 20.0210018157959 -27.25909996032715 -27.244901657104492 62.86309051513672 -1.8423800468444824 -35.49409866333008 -5.75214958190918 -1.7272446806160247e-09 5.5100053408807526e-09 -3.06679881489913e-09 -2.893604911236025e-09 9.939385314794436e-09 -5.3402717803407995e-09 -1.7272446806160247e-09 5.510018219467838e-09 -3.0668179107351534e-09 7.7309088706970215 5.474880218505859 0.41731396317481995 -1.7272446806160247e-09 5.5100053408807526e-09 -3.06679881489913e-09 2.9055399894714355 0.9651829600334167 0.10290198773145676 -1.7272446806160247e-09 5.5100053408807526e-09 -3.06679881489913e-09 10.27859878540039 0.73180091381073 0.025912299752235413 -1.7272573371585054e-09 5.5100053408807526e-09 -3.06679881489913e-09 2.2216696739196777 -0.7334870100021362 -0.2089199721813202 4.834442850383536e-13 -3.2441655698628447e-12 2.0991659745086405e-13 -115.7040023803711 44.91600036621094 53.313194274902344 27.934396743774414 -40.74679946899414 -85.27059936523438 24.857099533081055 -75.1365966796875 31.974699020385742 -1.7644444239017787e-10 -2.1155775742354166e-10 4.9311315447608806e-11 -3.131319648019826e-10 -3.077758881087078e-10 8.563325049060211e-11 -1.7644444239017787e-10 -2.1155775742354166e-10 4.9311315447608806e-11 -7.7309088706970215 5.474880218505859 -0.41731396317481995 -1.764317164587581e-10 -2.1155775742354166e-10 4.9298596455082944e-11 -2.9055399894714355 0.9651829600334167 -0.10290198773145676 -1.764317164587581e-10 -2.1155775742354166e-10 4.9298596455082944e-11 -10.27859878540039 0.73180091381073 -0.025912299752235413 -1.764317164587581e-10 -2.1155775742354166e-10 4.927951102740025e-11 -2.2216696739196777 -0.7334870100021362 0.2089199721813202 -0.0 0.0 -0.0 -2.3862297534942627 5.962610244750977 -10.745498657226562 -0.16430486738681793 41.369102478027344 1.8777796030044556 -10.678098678588867 -26.98400115966797 -18.198999404907227 -0.0 0.0 -0.0 79.7876968383789 -57.27379608154297 62.42479705810547 6.147848606109619 81.19309997558594 -6.257609844207764 -4.319470405578613 -10.167698860168457 -14.960599899291992
0.07497152806895199 36.151689257973494 0.043544791329908586 -49.61800003051758 69.38689422607422 -42.52798843383789 12.017800331115723 5.983170032501221 -1.3102998733520508 6.462629318237305 -6.33336067199707 0.16073599457740784 -9.887558937072754 24.811498641967773 -20.09929656982422 16.018098831176758 -24.563798904418945 -36.470699310302734 -0.0 0.0 -0.0 -0.0 0.0 -0.0 1.5266661632790113e-13 -1.5648327902559322e-12 2.5444436054650188e-14 63.90389633178711 -25.198097229003906 20.28959846496582 -27.246700286865234 -27.199098587036133 62.79050064086914 -1.8549994230270386 -35.59619903564453 -5.773909091949463 -6.050432377335824e-10 1.237500324435814e-08 -4.059602431993881e-09 -9.450318305681549e-10 2.1681101358694832e-08 -7.015800829179852e-09 -6.050432377335824e-10 1.237500324435814e-08 -4.059627745078842e-09 7.7309088706970215 5.474880218505859 0.41731396317481995 -6.050432377335824e-10 1.237500324435814e-08 -4.059609093332028e-09 2.9055399894714355 0.9651829600334167 0.10290198773145676 -6.050432377335824e-10 1.237500324435814e-08 -4.059609093332028e-09 10.27859878540039 0.73180091381073 0.025912299752235413 -6.050559497872143e-10 1.237500324435814e-08 -4.059602431993881e-09 2.2216696739196777 -0.7334870100021362 -0.2089199721813202 1.5266661632790113e-13 -1.5648327902559322e-12 1.908332704098764e-14 -115.63999938964844 44.831199645996094 53.214599609375 27.928997039794922 -40.773502349853516 -85.31929779052734 25.509098052978516 -75.39860534667969 32.64879608154297 2.7518411993554537e-09 3.8421099635144174e-10 -1.8554210390320236e-09 4.82636419718574e-09 4.671089626206992e-10 -2.9961013670032344e-09 2.7518411993554537e-09 3.8421099635144174e-10 -1.855427367303264e-09 -7.7309088706970215 5.474880218505859 -0.41731396317481995 2.7518538558979344e-09 3.842237084050737e-10 -1.8554401348680472e-09 -2.9055399894714355 0.9651829600334167 -0.10290198773145676 2.7518411993554537e-09 3.842237084050737e-10 -1.8554401348680472e-09 -10.27859878540039 0.73180091381073 -0.025912299752235413 2.7518538558979344e-09 3.842237084050737e-10 -1.8554591196817682e-09 -2.2216696739196777 -0.7334870100021362 0.2089199721813202 -0.0 0.0 -0.0 -2.2873196601867676 5.991519927978516 -10.794998168945312 -0.1635580062866211 41.37339782714844 1.8828598260879517 -10.699898719787598 -26.96249771118164 -18.242599487304688 -0.0 0.0 -0.0 80.08929443359375 -57.28580093383789 62.795894622802734 6.2446489334106445 81.30260467529297 -6.358809471130371 -4.286799430847168 -10.104399681091309 -14.891797065734863
0.09734553024778117 36.13243836979781 0.06474422942264701 -49.7920036315918 69.41839599609375 -42.67000198364258 12.037899017333984 5.933760166168213 -1.4903000593185425 6.580139636993408 -6.269410133361816 0.11250598728656769 -10.219900131225586 24.648401260375977 -19.965999603271484 16.088298797607422 -24.46619987487793 -36.24910354614258 -0.0 0.0 -0.0 -0.0 0.0 -0.0 -5.0888872109300376e-14 3.816665408197528e-13 -1.3994439830057603e-13 63.81339645385742 -24.837099075317383 20.71430015563965 -27.236297607421875 -27.161500930786133 62.73069381713867 -1.8545098304748535 -35.59219741821289 -5.773059844970703 -1.5470217121227314e-11 3.15035197928637e-09 -8.757529701419742e-10 -4.8344427419633185e-12 5.512613476810202e-09 -1.5138293951721948e-09 -1.5470217121227314e-11 3.1503646358288506e-09 -8.757720659779977e-10 7.7309088706970215 5.474880218505859 0.41731396317481995 -1.5470217121227314e-11 3.150339322743889e-09 -8.757529701419742e-10 2.9055399894714355 0.9651829600334167 0.10290198773145676 -1.54574946592545e-11 3.150339322743889e-09 -8.757592984132145e-10 10.27859878540039 0.73180091381073 0.025912299752235413 -1.5470217121227314e-11 3.15035197928637e-09 -8.757529701419742e-10 2.2216696739196777 -0.7334870100021362 -0.2089199721813202 -5.0888872109300376e-14 3.816665408197528e-13 -1.3994439830057603e-13 -115.58299255371094 44.37649917602539 52.832698822021484 27.930997848510742 -40.7639045715332 -85.30169677734375 24.64449691772461 -75.04890441894531 31.754695892333984 4.88558637989911e-10 2.6609792147525013e-10 -5.858199481068027e-10 8.723752276118546e-10 4.2198325389541935e-10 -9.70635238850548e-10 4.88558637989911e-10 2.6609792147525013e-10 -5.858199481068027e-10 -7.7309088706970215 5.474880218505859 -0.41731396317481995 4.88558637989911e-10 2.6609792147525013e-10 -5.858263318891943e-10 -2.9055399894714355 0.9651829600334167 -0.10290198773145676 4.88558637989911e-10 2.6609792147525013e-10 -5.858327156715859e-10 -10.27859878540039 0.73180091381073 -0.025912299752235413 4.88558637989911e-10 2.6609792147525013e-10 -5.858454277252179e-10 -2.2216696739196777 -0.7334870100021362 0.2089199721813202 -0.0 0.0 -0.0 -2.2110400199890137 6.025839805603027 -10.829099655151367 -0.16347403824329376 41.38079833984375 1.8845798969268799 -10.701399803161621 -26.990100860595703 -18.24869728088379 -0.0 0.0 -0.0 80.27769470214844 -57.26120376586914 62.964996337890625 6.30496883392334 81.37419128417969 -6.419789791107178 -4.338059902191162 -10.149099349975586 -15.004097938537598
